# xmcd CD database file
#
# Track frame offsets:
#	150
#	20685
#	40965
#	63609
#	86637
#	106654
#	127029
#	148334
#	175640
#
# Disc length: 2490 seconds
#
# Revision: 1
# Processed by: cddbd v1.5.2PL0 Copyright (c) Steve Scherf et al.
# Submitted via: CDex 1.70beta2
#
DISCID=7d09b809
DTITLE=Böll, Heinrich - Ansichten eines Clowns 5v5
DYEAR=1982
DGENRE=Hörbuch
TTITLE0=Diskussion 01
TTITLE1=Diskussion 02
TTITLE2=Diskussion 03
TTITLE3=Diskussion 04
TTITLE4=Diskussion 05
TTITLE5=Diskussion 06
TTITLE6=Diskussion 07
TTITLE7=Diskussion 08
TTITLE8=Diskussion 09
EXTD=YEAR: 1982
EXTT0=
EXTT1=
EXTT2=
EXTT3=
EXTT4=
EXTT5=
EXTT6=
EXTT7=
EXTT8=
PLAYORDER=
